<?xml version="1.0" encoding="utf-8"?>
<!-- Generator: Adobe Illustrator 24.0.2, SVG Export Plug-In . SVG Version: 6.00 Build 0)  -->
<svg version="1.1" id="Layer_1" xmlns="http://www.w3.org/2000/svg" xmlns:xlink="http://www.w3.org/1999/xlink" x="0px" y="0px"
	 viewBox="0 0 256 44" style="enable-background:new 0 0 256 44;" xml:space="preserve">
<style type="text/css">
	.st0{fill:#005B86;}
	.st1{fill:#0EB3D9;}
	.st2{fill:#FFFFFF;}
</style>
<path class="st0" d="M48.81,13.83c0.24,0.68,0.37,1.4,0.37,2.16c0,0.03,0,0.06,0,0.1c0,0.17-0.01,0.34-0.03,0.51
	c-0.01,0.13-0.03,0.26-0.05,0.39c-0.01,0.06-0.02,0.12-0.03,0.18c-0.03,0.17-0.07,0.33-0.11,0.49c0,0.01-0.01,0.03-0.01,0.04
	c-0.05,0.18-0.1,0.35-0.16,0.52c0,0,0,0,0,0c-0.92,2.53-3.34,4.35-6.19,4.35H19.56c-1.21,0-2.19,0.98-2.19,2.19
	c0,1.21,0.98,2.19,2.19,2.19l28.5,0c1.21,0,2.19-0.98,2.19-2.19h4.39c0,0.77-0.14,1.51-0.38,2.2h0.03c-0.84,2.36-2.97,4.1-5.54,4.35
	c-0.01,0-29.19,0.04-29.19,0.04c-3.63,0-6.58-2.95-6.58-6.58c0-0.22,0.01-0.44,0.03-0.66c0.01-0.05,0.02-0.11,0.02-0.16
	c0.02-0.16,0.04-0.32,0.07-0.47c0.01-0.07,0.03-0.14,0.05-0.22c0.03-0.13,0.06-0.27,0.1-0.4c0.02-0.08,0.05-0.16,0.08-0.23
	c0.04-0.12,0.08-0.24,0.13-0.35c0.03-0.08,0.07-0.16,0.11-0.24c0.05-0.11,0.1-0.22,0.16-0.32c0.04-0.08,0.09-0.16,0.13-0.23
	c0.06-0.1,0.12-0.2,0.18-0.3c0.05-0.08,0.1-0.15,0.16-0.23c0.07-0.09,0.13-0.18,0.2-0.27c0.06-0.07,0.12-0.15,0.18-0.22
	c0.07-0.08,0.14-0.16,0.22-0.24c0.07-0.07,0.13-0.14,0.2-0.21c0.08-0.07,0.16-0.15,0.24-0.22c0.07-0.06,0.15-0.13,0.22-0.19
	c0.08-0.07,0.17-0.13,0.25-0.19c0.08-0.06,0.16-0.12,0.25-0.17c0.09-0.06,0.18-0.11,0.27-0.16c0.09-0.05,0.18-0.1,0.27-0.15
	c0.09-0.05,0.18-0.09,0.28-0.13c0.09-0.04,0.19-0.09,0.29-0.13c0.09-0.04,0.19-0.07,0.28-0.1c0.1-0.04,0.2-0.08,0.31-0.11
	c0.09-0.03,0.19-0.05,0.28-0.07c0.24-0.06,0.48-0.11,0.72-0.14c0.3-0.04,0.6-0.07,0.92-0.07H42.6c1.21,0,2.19-0.98,2.19-2.19
	c0-1.21-0.98-2.19-2.19-2.19H19.58c-6.05,0-10.97,4.92-10.97,10.97c0,3.58,1.73,6.75,4.39,8.76v3.97c0,0.85,0.69,1.54,1.54,1.54
	h3.51c0.85,0,1.54-0.69,1.54-1.54v-1.75c0,0,0,0,0,0h28.53v1.75c0,0.85,0.69,1.54,1.54,1.54h3.51c0.85,0,1.54-0.69,1.54-1.54v-3.97
	c2.66-2,4.39-5.18,4.39-8.76C59.09,18.96,54.54,14.2,48.81,13.83z"/>
<g>
	<path class="st0" d="M69.89,22.05c0-7.95,5.81-12.95,13.44-12.95c2.84,0,5.6,0.88,7.25,2.28c0.84,0.73,0.98,1.33,0.98,1.82
		c0,1.12-0.88,2.03-2.07,2.03c-0.46,0-0.91-0.14-1.68-0.7c-0.98-0.84-2.62-1.54-4.48-1.54c-5.11,0-8.58,3.96-8.58,9.07
		c0,5.39,3.29,9.14,8.4,9.14c1.96,0,3.64-0.56,5.18-1.93c0.73-0.63,1.19-0.73,1.65-0.73c1.08,0,1.96,0.73,1.96,1.93
		c0,0.56-0.24,1.22-0.91,1.89c-1.58,1.54-4.38,2.8-7.91,2.8C75.39,35.14,69.89,29.79,69.89,22.05z"/>
	<path class="st0" d="M106.99,34.83c-0.63,0-1.96-0.31-1.96-2.21v-0.24h-0.1c-0.84,1.47-2.83,2.55-5.22,2.55
		c-2.7,0-6.3-1.29-6.3-5.22c0-5,6.3-5.71,11.55-5.71v-0.42c0-2.07-1.75-3.08-3.85-3.08c-1.29,0-2.45,0.52-3.64,1.26
		c-0.42,0.25-0.81,0.35-1.12,0.35c-0.88,0-1.58-0.7-1.58-1.61c0-0.52,0.21-1.08,0.98-1.61c1.58-1.08,3.61-1.68,5.71-1.68
		c6.02,0,7.49,3.71,7.49,7.07v8.33C108.95,34.51,107.62,34.83,106.99,34.83z M104.02,26.85c-2.66,0-6.41,0.31-6.41,2.8
		c0,1.61,1.5,2.1,2.94,2.1c2.87,0,4.41-1.64,4.41-4.3v-0.6H104.02z"/>
</g>
<g>
	<path class="st0" d="M113.27,34.83c-0.7,0-2.1-0.35-2.1-2.35V19.64c0-1.89,1.36-2.24,2-2.24c0.67,0,2.03,0.35,2.03,2.24v0.88h0.07
		c0.67-1.82,2.35-3.29,4.38-3.29c1.26,0,2.17,0.63,2.17,1.86c0,1.08-0.67,2.03-2.27,2.03c-2.66,0-4.17,2-4.17,4.8v6.58
		C115.37,34.48,113.97,34.83,113.27,34.83z"/>
</g>
<g>
	<path class="st1" d="M129.43,9.1c4.3,0,8.26,2.49,8.26,7.25c0,3.19-1.79,5.39-3.99,7.49l-7.14,6.82h9.35
		c1.82,0,2.13,1.29,2.13,1.93s-0.31,1.93-2.13,1.93h-12.15c-2.52,0-2.84-1.44-2.84-2.21c0-0.74,0.25-1.47,1.44-2.62l8.44-8.4
		c1.54-1.5,2.52-2.94,2.52-4.87c0-2.31-1.71-3.82-3.96-3.82c-1.75,0-3.01,0.94-3.82,2.7c-0.46,0.98-1.23,1.58-2.1,1.58
		c-1.12,0-2-0.81-2-1.96c0-0.46,0.17-0.95,0.35-1.29C123.13,10.92,125.93,9.1,129.43,9.1z"/>
</g>
<g>
	<path class="st0" d="M144.98,32.34c0,2.1-1.47,2.48-2.21,2.48s-2.21-0.38-2.21-2.48V12.35c0-1.79,0.84-2.63,2.62-2.63h11.52
		c1.89,0,2.17,1.33,2.17,1.93s-0.28,1.93-2.17,1.93h-9.73v6.79h9.14c1.86,0,2.1,1.3,2.1,1.86c0,0.56-0.25,1.85-2.1,1.85h-9.14V32.34
		z"/>
	<path class="st0" d="M160.55,14.52c-1.54,0-2.66-1.19-2.66-2.52s1.12-2.52,2.66-2.52s2.73,1.09,2.73,2.52
		S162.09,14.52,160.55,14.52z M160.59,34.83c-0.7,0-2.1-0.35-2.1-2.35V19.74c0-2,1.4-2.35,2.1-2.35s2.1,0.35,2.1,2.35v12.74
		C162.69,34.48,161.29,34.83,160.59,34.83z"/>
</g>
<g>
	<path class="st0" d="M164.98,19.6c0-1.89,1.37-2.21,2-2.21s2,0.31,2,2.21v0.81h0.07c0.73-1.68,2.73-3.19,5.21-3.19
		c4.38,0,6.2,3.36,6.2,6.79v8.47c0,2-1.4,2.35-2.1,2.35s-2.1-0.35-2.1-2.35V25.2c0-2-0.46-4.48-3.15-4.48
		c-2.66,0-3.92,2.31-3.92,4.55v7.21c0,2-1.4,2.35-2.1,2.35s-2.1-0.35-2.1-2.35V19.6z"/>
	<path class="st0" d="M195.71,34.83c-0.63,0-1.96-0.31-1.96-2.21v-0.24h-0.1c-0.84,1.47-2.84,2.55-5.22,2.55
		c-2.7,0-6.3-1.29-6.3-5.22c0-5,6.3-5.71,11.55-5.71v-0.42c0-2.07-1.75-3.08-3.85-3.08c-1.3,0-2.45,0.52-3.64,1.26
		c-0.42,0.25-0.8,0.35-1.12,0.35c-0.88,0-1.58-0.7-1.58-1.61c0-0.52,0.21-1.08,0.98-1.61c1.58-1.08,3.61-1.68,5.71-1.68
		c6.02,0,7.49,3.71,7.49,7.07v8.33C197.67,34.51,196.34,34.83,195.71,34.83z M192.74,26.85c-2.66,0-6.41,0.31-6.41,2.8
		c0,1.61,1.51,2.1,2.94,2.1c2.87,0,4.41-1.64,4.41-4.3v-0.6H192.74z"/>
</g>
<g>
	<path class="st0" d="M199.88,19.6c0-1.89,1.37-2.21,2-2.21s2,0.31,2,2.21v0.81h0.07c0.73-1.68,2.73-3.19,5.21-3.19
		c4.38,0,6.2,3.36,6.2,6.79v8.47c0,2-1.4,2.35-2.1,2.35s-2.1-0.35-2.1-2.35V25.2c0-2-0.46-4.48-3.15-4.48
		c-2.66,0-3.92,2.31-3.92,4.55v7.21c0,2-1.4,2.35-2.1,2.35s-2.1-0.35-2.1-2.35V19.6z"/>
	<path class="st0" d="M229.95,30.24c1.08,0,1.71,0.8,1.71,1.68c0,0.59-0.17,1.19-1.12,1.85c-1.19,0.84-3.04,1.23-4.48,1.23
		c-5.01,0-8.96-3.29-8.96-8.89c0-5.46,4.06-8.89,9-8.89c1.61,0,3.22,0.39,4.41,1.19c0.98,0.67,1.19,1.33,1.19,1.82
		c0,0.94-0.7,1.82-1.82,1.82c-0.38,0-0.77-0.1-1.4-0.56c-0.56-0.42-1.37-0.77-2.38-0.77c-3.08,0-4.62,2.77-4.62,5.39
		c0,2.62,1.47,5.36,4.62,5.36c0.91,0,1.75-0.21,2.49-0.7C229.11,30.42,229.56,30.24,229.95,30.24z"/>
</g>
<g>
	<path class="st0" d="M236.27,27.44c0.18,2.38,2.35,4.13,4.8,4.13c1.75,0,2.8-0.56,3.85-1.43c0.59-0.49,0.98-0.6,1.43-0.6
		c0.95,0,1.68,0.66,1.68,1.68c0,0.35-0.14,0.98-0.7,1.51C245.69,34.3,243.8,35,241.1,35c-5.18,0-9.03-3.33-9.03-8.79
		c0-5.43,3.82-9,8.89-9c4.06,0,7.35,2.31,8.02,7.25c0.04,0.35,0.07,0.6,0.07,0.88c0,1.47-0.8,2.1-2.21,2.1H236.27z M244.88,24.43
		c0-2.17-1.23-4.06-3.96-4.06c-2.49,0-4.48,1.72-4.66,4.06H244.88z"/>
</g>
<path class="st1" d="M60.68,14.37c-0.36-0.36-0.86-0.57-1.38-0.57h-3.33c-0.81,0-1.54,0.5-1.82,1.26l-0.17,0.46
	c1.51,0.96,2.76,2.27,3.65,3.82l2.81-2.01C61.42,16.63,61.53,15.22,60.68,14.37z"/>
<path class="st1" d="M13.67,15.54l-0.18-0.48c-0.29-0.76-1.01-1.26-1.82-1.26H8.34c-0.52,0-1.01,0.21-1.38,0.57
	c-0.85,0.85-0.73,2.26,0.24,2.96l2.84,2.03C10.93,17.81,12.18,16.5,13.67,15.54z"/>
<g>
	<path class="st2" d="M42.6,13.8c1.21,0,2.19,0.98,2.19,2.19c0,1.21-0.98,2.19-2.19,2.19H19.56c-0.31,0-0.62,0.03-0.92,0.07
		c-0.25,0.03-0.49,0.08-0.72,0.14c-0.09,0.02-0.19,0.04-0.28,0.07c-0.1,0.03-0.2,0.07-0.31,0.11c-0.09,0.03-0.19,0.07-0.28,0.1
		c-0.1,0.04-0.19,0.09-0.29,0.13c-0.09,0.04-0.19,0.09-0.28,0.13c-0.09,0.05-0.18,0.1-0.27,0.15c-0.09,0.05-0.18,0.1-0.27,0.16
		c-0.08,0.05-0.16,0.11-0.25,0.17c-0.09,0.06-0.17,0.12-0.25,0.19c-0.08,0.06-0.15,0.13-0.22,0.19c-0.08,0.07-0.16,0.14-0.24,0.22
		c-0.07,0.07-0.14,0.14-0.2,0.21c-0.08,0.08-0.15,0.16-0.22,0.24c-0.06,0.07-0.12,0.14-0.18,0.22c-0.07,0.09-0.14,0.18-0.2,0.27
		c-0.05,0.07-0.11,0.15-0.16,0.23c-0.06,0.1-0.12,0.2-0.18,0.3c-0.04,0.08-0.09,0.15-0.13,0.23c-0.06,0.11-0.11,0.21-0.16,0.32
		c-0.04,0.08-0.07,0.16-0.11,0.24c-0.05,0.12-0.09,0.24-0.13,0.35c-0.03,0.08-0.06,0.15-0.08,0.23c-0.04,0.13-0.07,0.26-0.1,0.4
		c-0.02,0.07-0.04,0.14-0.05,0.22c-0.03,0.16-0.05,0.31-0.07,0.47c-0.01,0.05-0.02,0.11-0.02,0.16c-0.02,0.22-0.03,0.43-0.03,0.66
		c0,3.63,2.95,6.58,6.58,6.58c0,0,29.18-0.04,29.19-0.04c2.57-0.26,4.71-2,5.54-4.35h-0.03c0.24-0.69,0.38-1.42,0.38-2.2h-4.39
		c0,1.21-0.98,2.19-2.19,2.19l-28.5,0c-1.21,0-2.19-0.98-2.19-2.19c0-0.15,0.02-0.3,0.04-0.44c0.01-0.07,0.04-0.13,0.06-0.19
		c0.02-0.07,0.04-0.15,0.07-0.21c0.04-0.09,0.09-0.18,0.14-0.26c0.02-0.03,0.03-0.07,0.06-0.11c0.07-0.11,0.16-0.21,0.25-0.3
		c0.01-0.01,0.01-0.01,0.02-0.02c0.39-0.4,0.93-0.64,1.53-0.65c0,0,0,0,0,0c0.01,0,0.02,0,0.04,0h0.02H42.6
		c2.85,0,5.27-1.82,6.19-4.35c0,0,0,0,0,0c0.06-0.17,0.12-0.34,0.16-0.52c0-0.01,0.01-0.03,0.01-0.04c0.04-0.16,0.08-0.32,0.11-0.49
		c0.01-0.06,0.02-0.12,0.03-0.18c0.02-0.13,0.04-0.26,0.05-0.39c0.02-0.17,0.02-0.34,0.03-0.51c0-0.03,0-0.06,0-0.1
		c0-0.76-0.13-1.48-0.37-2.16c-0.9-2.57-3.34-4.42-6.21-4.42l-17.5,0c-2.87,0-5.31,1.85-6.21,4.42c0,0,0,0,0,0
		c0.23-0.01,0.46-0.04,0.7-0.04H42.6z"/>
	<polygon class="st2" points="18.88,13.83 18.88,13.83 18.88,13.83 	"/>
</g>
<path class="st1" d="M18.88,13.83C18.88,13.83,18.88,13.83,18.88,13.83C18.88,13.83,18.88,13.83,18.88,13.83
	c0.9-2.57,3.34-4.42,6.21-4.42l17.5,0c2.87,0,5.32,1.85,6.21,4.42c0.4,0.03,0.79,0.08,1.17,0.14c0,0,0,0,0,0
	c0.06,0.01,0.13,0.03,0.19,0.04c0.32,0.06,0.63,0.13,0.94,0.22c0,0,0,0,0,0c0.11,0.03,0.22,0.07,0.33,0.1
	c0.65,0.21,1.26,0.47,1.85,0.78h0c0.09,0.05,0.19,0.09,0.27,0.14C53.18,9.55,48.43,5.02,42.63,5.02H25.07l0,0.01V5.02
	c-5.8,0-10.56,4.53-10.94,10.24c0,0,0,0,0,0C15.55,14.44,17.16,13.94,18.88,13.83z"/>
</svg>
